<svg xmlns="http://www.w3.org/2000/svg" xmlns:xlink="http://www.w3.org/1999/xlink" contentStyleType="text/css" data-diagram-type="DESCRIPTION" height="763px" preserveAspectRatio="none" style="width:591px;height:763px;background:#FFFFFF;" version="1.1" viewBox="0 0 591 763" width="591px" zoomAndPan="magnify"><defs/><g><!--cluster User Interface (UI)--><g class="cluster" data-entity="User Interface (UI)" data-source-line="2" data-uid="ent0002" id="cluster_User Interface (UI)"><path d="M151.5,68 L299.3223,68 A3.75,3.75 0 0 1 301.8223,70.5 L308.8223,90.2969 L455.5,90.2969 A2.5,2.5 0 0 1 458,92.7969 L458,162.8 A2.5,2.5 0 0 1 455.5,165.3 L151.5,165.3 A2.5,2.5 0 0 1 149,162.8 L149,70.5 A2.5,2.5 0 0 1 151.5,68" fill="none" style="stroke:#000000;stroke-width:1.5;"/><line style="stroke:#000000;stroke-width:1.5;" x1="149" x2="308.8223" y1="90.2969" y2="90.2969"/><text fill="#000000" font-family="sans-serif" font-size="14" font-weight="bold" lengthAdjust="spacing" textLength="146.8223" x="153" y="82.9951">User Interface (UI)</text></g><!--cluster API Layer (Controllers)--><g class="cluster" data-entity="API Layer (Controllers)" data-source-line="8" data-uid="ent0005" id="cluster_API Layer (Controllers)"><path d="M23.5,189.3 L204.6475,189.3 A3.75,3.75 0 0 1 207.1475,191.8 L214.1475,211.5969 L566.5,211.5969 A2.5,2.5 0 0 1 569,214.0969 L569,284.09 A2.5,2.5 0 0 1 566.5,286.59 L23.5,286.59 A2.5,2.5 0 0 1 21,284.09 L21,191.8 A2.5,2.5 0 0 1 23.5,189.3" fill="none" style="stroke:#000000;stroke-width:1.5;"/><line style="stroke:#000000;stroke-width:1.5;" x1="21" x2="214.1475" y1="211.5969" y2="211.5969"/><text fill="#000000" font-family="sans-serif" font-size="14" font-weight="bold" lengthAdjust="spacing" textLength="180.1475" x="25" y="204.2951">API Layer (Controllers)</text></g><!--cluster Business Logic Layer (BLL)--><g class="cluster" data-entity="Business Logic Layer (BLL)" data-source-line="15" data-uid="ent0009" id="cluster_Business Logic Layer (BLL)"><path d="M8.5,310.59 L220.8809,310.59 A3.75,3.75 0 0 1 223.3809,313.09 L230.3809,332.8869 L581.5,332.8869 A2.5,2.5 0 0 1 584,335.3869 L584,511.69 A2.5,2.5 0 0 1 581.5,514.19 L8.5,514.19 A2.5,2.5 0 0 1 6,511.69 L6,313.09 A2.5,2.5 0 0 1 8.5,310.59" fill="none" style="stroke:#000000;stroke-width:1.5;"/><line style="stroke:#000000;stroke-width:1.5;" x1="6" x2="230.3809" y1="332.8869" y2="332.8869"/><text fill="#000000" font-family="sans-serif" font-size="14" font-weight="bold" lengthAdjust="spacing" textLength="211.3809" x="10" y="325.5851">Business Logic Layer (BLL)</text></g><!--cluster Data Access Layer (DAL)--><g class="cluster" data-entity="Data Access Layer (DAL)" data-source-line="26" data-uid="ent0016" id="cluster_Data Access Layer (DAL)"><path d="M14.5,538.19 L208.9912,538.19 A3.75,3.75 0 0 1 211.4912,540.69 L218.4912,560.4869 L574.5,560.4869 A2.5,2.5 0 0 1 577,562.9869 L577,632.98 A2.5,2.5 0 0 1 574.5,635.48 L14.5,635.48 A2.5,2.5 0 0 1 12,632.98 L12,540.69 A2.5,2.5 0 0 1 14.5,538.19" fill="none" style="stroke:#000000;stroke-width:1.5;"/><line style="stroke:#000000;stroke-width:1.5;" x1="12" x2="218.4912" y1="560.4869" y2="560.4869"/><text fill="#000000" font-family="sans-serif" font-size="14" font-weight="bold" lengthAdjust="spacing" textLength="193.4912" x="16" y="553.1851">Data Access Layer (DAL)</text></g><!--cluster Database--><g class="cluster" data-entity="Database" data-source-line="33" data-uid="ent0020" id="cluster_Database"><path d="M227.5,659.48 L303.0049,659.48 A3.75,3.75 0 0 1 305.5049,661.98 L312.5049,681.7769 L374.5,681.7769 A2.5,2.5 0 0 1 377,684.2769 L377,754.28 A2.5,2.5 0 0 1 374.5,756.78 L227.5,756.78 A2.5,2.5 0 0 1 225,754.28 L225,661.98 A2.5,2.5 0 0 1 227.5,659.48" fill="none" style="stroke:#000000;stroke-width:1.5;"/><line style="stroke:#000000;stroke-width:1.5;" x1="225" x2="312.5049" y1="681.7769" y2="681.7769"/><text fill="#000000" font-family="sans-serif" font-size="14" font-weight="bold" lengthAdjust="spacing" textLength="74.5049" x="229" y="674.4751">Database</text></g><!--entity Web Client--><g class="entity" data-entity="Web Client" data-source-line="3" data-uid="ent0003" id="entity_Web Client"><rect fill="#F1F1F1" height="46.2969" rx="2.5" ry="2.5" style="stroke:#181818;stroke-width:0.5;" width="116.3232" x="164.84" y="103"/><rect fill="#F1F1F1" height="10" style="stroke:#181818;stroke-width:0.5;" width="15" x="261.1632" y="108"/><rect fill="#F1F1F1" height="2" style="stroke:#181818;stroke-width:0.5;" width="4" x="259.1632" y="110"/><rect fill="#F1F1F1" height="2" style="stroke:#181818;stroke-width:0.5;" width="4" x="259.1632" y="114"/><text fill="#000000" font-family="sans-serif" font-size="14" lengthAdjust="spacing" textLength="76.3232" x="179.84" y="135.9951">Web Client</text></g><!--entity Game Client--><g class="entity" data-entity="Game Client" data-source-line="4" data-uid="ent0004" id="entity_Game Client"><rect fill="#F1F1F1" height="46.2969" rx="2.5" ry="2.5" style="stroke:#181818;stroke-width:0.5;" width="126.6592" x="315.67" y="103"/><rect fill="#F1F1F1" height="10" style="stroke:#181818;stroke-width:0.5;" width="15" x="422.3292" y="108"/><rect fill="#F1F1F1" height="2" style="stroke:#181818;stroke-width:0.5;" width="4" x="420.3292" y="110"/><rect fill="#F1F1F1" height="2" style="stroke:#181818;stroke-width:0.5;" width="4" x="420.3292" y="114"/><text fill="#000000" font-family="sans-serif" font-size="14" lengthAdjust="spacing" textLength="86.6592" x="330.67" y="135.9951">Game Client</text></g><!--entity AuthController--><g class="entity" data-entity="AuthController" data-source-line="9" data-uid="ent0006" id="entity_AuthController"><rect fill="#F1F1F1" height="46.2969" rx="2.5" ry="2.5" style="stroke:#181818;stroke-width:0.5;" width="141.9854" x="411.01" y="224.3"/><rect fill="#F1F1F1" height="10" style="stroke:#181818;stroke-width:0.5;" width="15" x="532.9954" y="229.3"/><rect fill="#F1F1F1" height="2" style="stroke:#181818;stroke-width:0.5;" width="4" x="530.9954" y="231.3"/><rect fill="#F1F1F1" height="2" style="stroke:#181818;stroke-width:0.5;" width="4" x="530.9954" y="235.3"/><text fill="#000000" font-family="sans-serif" font-size="14" lengthAdjust="spacing" textLength="101.9854" x="426.01" y="257.2951">AuthController</text></g><!--entity ProfileController--><g class="entity" data-entity="ProfileController" data-source-line="10" data-uid="ent0007" id="entity_ProfileController"><rect fill="#F1F1F1" height="46.2969" rx="2.5" ry="2.5" style="stroke:#181818;stroke-width:0.5;" width="153.2578" x="37.37" y="224.3"/><rect fill="#F1F1F1" height="10" style="stroke:#181818;stroke-width:0.5;" width="15" x="170.6278" y="229.3"/><rect fill="#F1F1F1" height="2" style="stroke:#181818;stroke-width:0.5;" width="4" x="168.6278" y="231.3"/><rect fill="#F1F1F1" height="2" style="stroke:#181818;stroke-width:0.5;" width="4" x="168.6278" y="235.3"/><text fill="#000000" font-family="sans-serif" font-size="14" lengthAdjust="spacing" textLength="113.2578" x="52.37" y="257.2951">ProfileController</text></g><!--entity GameController--><g class="entity" data-entity="GameController" data-source-line="11" data-uid="ent0008" id="entity_GameController"><rect fill="#F1F1F1" height="46.2969" rx="2.5" ry="2.5" style="stroke:#181818;stroke-width:0.5;" width="150.8516" x="225.57" y="224.3"/><rect fill="#F1F1F1" height="10" style="stroke:#181818;stroke-width:0.5;" width="15" x="356.4216" y="229.3"/><rect fill="#F1F1F1" height="2" style="stroke:#181818;stroke-width:0.5;" width="4" x="354.4216" y="231.3"/><rect fill="#F1F1F1" height="2" style="stroke:#181818;stroke-width:0.5;" width="4" x="354.4216" y="235.3"/><text fill="#000000" font-family="sans-serif" font-size="14" lengthAdjust="spacing" textLength="110.8516" x="240.57" y="257.2951">GameController</text></g><!--entity UserService--><g class="entity" data-entity="UserService" data-source-line="16" data-uid="ent0010" id="entity_UserService"><rect fill="#F1F1F1" height="46.2969" rx="2.5" ry="2.5" style="stroke:#181818;stroke-width:0.5;" width="123.6514" x="425.17" y="345.59"/><rect fill="#F1F1F1" height="10" style="stroke:#181818;stroke-width:0.5;" width="15" x="528.8214" y="350.59"/><rect fill="#F1F1F1" height="2" style="stroke:#181818;stroke-width:0.5;" width="4" x="526.8214" y="352.59"/><rect fill="#F1F1F1" height="2" style="stroke:#181818;stroke-width:0.5;" width="4" x="526.8214" y="356.59"/><text fill="#000000" font-family="sans-serif" font-size="14" lengthAdjust="spacing" textLength="83.6514" x="440.17" y="378.5851">UserService</text></g><!--entity ProfileService--><g class="entity" data-entity="ProfileService" data-source-line="17" data-uid="ent0011" id="entity_ProfileService"><rect fill="#F1F1F1" height="46.2969" rx="2.5" ry="2.5" style="stroke:#181818;stroke-width:0.5;" width="135.8262" x="41.09" y="345.59"/><rect fill="#F1F1F1" height="10" style="stroke:#181818;stroke-width:0.5;" width="15" x="156.9162" y="350.59"/><rect fill="#F1F1F1" height="2" style="stroke:#181818;stroke-width:0.5;" width="4" x="154.9162" y="352.59"/><rect fill="#F1F1F1" height="2" style="stroke:#181818;stroke-width:0.5;" width="4" x="154.9162" y="356.59"/><text fill="#000000" font-family="sans-serif" font-size="14" lengthAdjust="spacing" textLength="95.8262" x="56.09" y="378.5851">ProfileService</text></g><!--entity GameService--><g class="entity" data-entity="GameService" data-source-line="18" data-uid="ent0012" id="entity_GameService"><rect fill="#F1F1F1" height="46.2969" rx="2.5" ry="2.5" style="stroke:#181818;stroke-width:0.5;" width="133.4199" x="234.29" y="345.59"/><rect fill="#F1F1F1" height="10" style="stroke:#181818;stroke-width:0.5;" width="15" x="347.7099" y="350.59"/><rect fill="#F1F1F1" height="2" style="stroke:#181818;stroke-width:0.5;" width="4" x="345.7099" y="352.59"/><rect fill="#F1F1F1" height="2" style="stroke:#181818;stroke-width:0.5;" width="4" x="345.7099" y="356.59"/><text fill="#000000" font-family="sans-serif" font-size="14" lengthAdjust="spacing" textLength="93.4199" x="249.29" y="378.5851">GameService</text></g><!--entity IUserRepository--><g class="entity" data-entity="IUserRepository" data-source-line="20" data-uid="ent0013" id="entity_IUserRepository"><rect fill="#F1F1F1" height="46.2969" rx="2.5" ry="2.5" style="stroke:#181818;stroke-width:0.5;" width="151.1113" x="416.44" y="451.89"/><rect fill="#F1F1F1" height="10" style="stroke:#181818;stroke-width:0.5;" width="15" x="547.5513" y="456.89"/><rect fill="#F1F1F1" height="2" style="stroke:#181818;stroke-width:0.5;" width="4" x="545.5513" y="458.89"/><rect fill="#F1F1F1" height="2" style="stroke:#181818;stroke-width:0.5;" width="4" x="545.5513" y="462.89"/><text fill="#000000" font-family="sans-serif" font-size="14" lengthAdjust="spacing" textLength="111.1113" x="431.44" y="484.8851">IUserRepository</text></g><!--entity IProfileRepository--><g class="entity" data-entity="IProfileRepository" data-source-line="21" data-uid="ent0014" id="entity_IProfileRepository"><rect fill="#F1F1F1" height="46.2969" rx="2.5" ry="2.5" style="stroke:#181818;stroke-width:0.5;" width="163.2861" x="22.36" y="451.89"/><rect fill="#F1F1F1" height="10" style="stroke:#181818;stroke-width:0.5;" width="15" x="165.6461" y="456.89"/><rect fill="#F1F1F1" height="2" style="stroke:#181818;stroke-width:0.5;" width="4" x="163.6461" y="458.89"/><rect fill="#F1F1F1" height="2" style="stroke:#181818;stroke-width:0.5;" width="4" x="163.6461" y="462.89"/><text fill="#000000" font-family="sans-serif" font-size="14" lengthAdjust="spacing" textLength="123.2861" x="37.36" y="484.8851">IProfileRepository</text></g><!--entity IGameRepository--><g class="entity" data-entity="IGameRepository" data-source-line="22" data-uid="ent0015" id="entity_IGameRepository"><rect fill="#F1F1F1" height="46.2969" rx="2.5" ry="2.5" style="stroke:#181818;stroke-width:0.5;" width="160.8799" x="220.56" y="451.89"/><rect fill="#F1F1F1" height="10" style="stroke:#181818;stroke-width:0.5;" width="15" x="361.4399" y="456.89"/><rect fill="#F1F1F1" height="2" style="stroke:#181818;stroke-width:0.5;" width="4" x="359.4399" y="458.89"/><rect fill="#F1F1F1" height="2" style="stroke:#181818;stroke-width:0.5;" width="4" x="359.4399" y="462.89"/><text fill="#000000" font-family="sans-serif" font-size="14" lengthAdjust="spacing" textLength="120.8799" x="235.56" y="484.8851">IGameRepository</text></g><!--entity UserRepository--><g class="entity" data-entity="UserRepository" data-source-line="27" data-uid="ent0017" id="entity_UserRepository"><rect fill="#F1F1F1" height="46.2969" rx="2.5" ry="2.5" style="stroke:#181818;stroke-width:0.5;" width="146.9824" x="414.51" y="573.19"/><rect fill="#F1F1F1" height="10" style="stroke:#181818;stroke-width:0.5;" width="15" x="541.4924" y="578.19"/><rect fill="#F1F1F1" height="2" style="stroke:#181818;stroke-width:0.5;" width="4" x="539.4924" y="580.19"/><rect fill="#F1F1F1" height="2" style="stroke:#181818;stroke-width:0.5;" width="4" x="539.4924" y="584.19"/><text fill="#000000" font-family="sans-serif" font-size="14" lengthAdjust="spacing" textLength="106.9824" x="429.51" y="606.1851">UserRepository</text></g><!--entity ProfileRepository--><g class="entity" data-entity="ProfileRepository" data-source-line="28" data-uid="ent0018" id="entity_ProfileRepository"><rect fill="#F1F1F1" height="46.2969" rx="2.5" ry="2.5" style="stroke:#181818;stroke-width:0.5;" width="159.1572" x="28.42" y="573.19"/><rect fill="#F1F1F1" height="10" style="stroke:#181818;stroke-width:0.5;" width="15" x="167.5772" y="578.19"/><rect fill="#F1F1F1" height="2" style="stroke:#181818;stroke-width:0.5;" width="4" x="165.5772" y="580.19"/><rect fill="#F1F1F1" height="2" style="stroke:#181818;stroke-width:0.5;" width="4" x="165.5772" y="584.19"/><text fill="#000000" font-family="sans-serif" font-size="14" lengthAdjust="spacing" textLength="119.1572" x="43.42" y="606.1851">ProfileRepository</text></g><!--entity GameRepository--><g class="entity" data-entity="GameRepository" data-source-line="29" data-uid="ent0019" id="entity_GameRepository"><rect fill="#F1F1F1" height="46.2969" rx="2.5" ry="2.5" style="stroke:#181818;stroke-width:0.5;" width="156.751" x="222.62" y="573.19"/><rect fill="#F1F1F1" height="10" style="stroke:#181818;stroke-width:0.5;" width="15" x="359.371" y="578.19"/><rect fill="#F1F1F1" height="2" style="stroke:#181818;stroke-width:0.5;" width="4" x="357.371" y="580.19"/><rect fill="#F1F1F1" height="2" style="stroke:#181818;stroke-width:0.5;" width="4" x="357.371" y="584.19"/><text fill="#000000" font-family="sans-serif" font-size="14" lengthAdjust="spacing" textLength="116.751" x="237.62" y="606.1851">GameRepository</text></g><!--entity PostgreSQL--><g class="entity" data-entity="PostgreSQL" data-source-line="34" data-uid="ent0021" id="entity_PostgreSQL"><rect fill="#F1F1F1" height="46.2969" rx="2.5" ry="2.5" style="stroke:#181818;stroke-width:0.5;" width="120.7529" x="240.62" y="694.48"/><rect fill="#F1F1F1" height="10" style="stroke:#181818;stroke-width:0.5;" width="15" x="341.3729" y="699.48"/><rect fill="#F1F1F1" height="2" style="stroke:#181818;stroke-width:0.5;" width="4" x="339.3729" y="701.48"/><rect fill="#F1F1F1" height="2" style="stroke:#181818;stroke-width:0.5;" width="4" x="339.3729" y="705.48"/><text fill="#000000" font-family="sans-serif" font-size="14" lengthAdjust="spacing" textLength="80.7529" x="255.62" y="727.4751">PostgreSQL</text></g><!--entity User--><g class="entity" data-entity="User" data-source-line="40" data-uid="ent0022" id="entity_User"><ellipse cx="301" cy="14" fill="#F1F1F1" rx="8" ry="8" style="stroke:#181818;stroke-width:0.5;"/><text fill="#000000" font-family="sans-serif" font-size="14" lengthAdjust="spacing" textLength="31.9102" x="285.0449" y="43.9951">User</text></g><!--link User to Web Client--><g class="link" data-entity-1="User" data-entity-2="Web Client" data-source-line="40" data-uid="lnk23" id="link_User_Web Client"><path d="M295.39,22.92 C283.72,39.4 259.9374,72.9833 242.3974,97.7533" fill="none" id="User-to-Web Client" style="stroke:#181818;stroke-width:1;"/><polygon fill="#181818" points="238.93,102.65,247.3955,97.6166,241.8195,98.5695,240.8667,92.9934,238.93,102.65" style="stroke:#181818;stroke-width:1;"/></g><!--link User to Game Client--><g class="link" data-entity-1="User" data-entity-2="Game Client" data-source-line="41" data-uid="lnk24" id="link_User_Game Client"><path d="M306.61,22.92 C318.28,39.4 342.0626,72.9833 359.6026,97.7533" fill="none" id="User-to-Game Client" style="stroke:#181818;stroke-width:1;"/><polygon fill="#181818" points="363.07,102.65,361.1333,92.9934,360.1805,98.5695,354.6045,97.6166,363.07,102.65" style="stroke:#181818;stroke-width:1;"/></g><!--link Web Client to AuthController--><g class="link" data-entity-1="Web Client" data-entity-2="AuthController" data-source-line="44" data-uid="lnk25" id="link_Web Client_AuthController"><path d="M252.41,149.69 C265.64,158.62 281.88,168 298,173.3 C338.68,186.66 353.93,166.2 394,181.3 C418.73,190.61 438.0809,205.0166 454.6809,219.8866" fill="none" id="Web Client-to-AuthController" style="stroke:#181818;stroke-width:1;"/><polygon fill="#181818" points="459.15,223.89,455.1152,214.9055,455.4257,220.5539,449.7774,220.8644,459.15,223.89" style="stroke:#181818;stroke-width:1;"/></g><!--link Web Client to ProfileController--><g class="link" data-entity-1="Web Client" data-entity-2="ProfileController" data-source-line="45" data-uid="lnk26" id="link_Web Client_ProfileController"><path d="M202.5,149.59 C183.01,170.91 157.917,198.3803 138.457,219.6803" fill="none" id="Web Client-to-ProfileController" style="stroke:#181818;stroke-width:1;"/><polygon fill="#181818" points="134.41,224.11,143.4336,220.1635,137.7825,220.4186,137.5274,214.7675,134.41,224.11" style="stroke:#181818;stroke-width:1;"/></g><!--link Web Client to GameController--><g class="link" data-entity-1="Web Client" data-entity-2="GameController" data-source-line="46" data-uid="lnk27" id="link_Web Client_GameController"><path d="M237.67,149.59 C251.62,170.91 269.1876,197.7874 283.1076,219.0874" fill="none" id="Web Client-to-GameController" style="stroke:#181818;stroke-width:1;"/><polygon fill="#181818" points="286.39,224.11,284.8148,214.3879,283.6547,219.9245,278.1181,218.7644,286.39,224.11" style="stroke:#181818;stroke-width:1;"/></g><!--link Game Client to AuthController--><g class="link" data-entity-1="Game Client" data-entity-2="AuthController" data-source-line="48" data-uid="lnk28" id="link_Game Client_AuthController"><path d="M398.37,149.59 C416.79,170.91 440.4102,198.2674 458.7902,219.5674" fill="none" id="Game Client-to-AuthController" style="stroke:#181818;stroke-width:1;"/><polygon fill="#181818" points="462.71,224.11,459.8586,214.6829,459.4435,220.3245,453.8019,219.9094,462.71,224.11" style="stroke:#181818;stroke-width:1;"/></g><!--link Game Client to ProfileController--><g class="link" data-entity-1="Game Client" data-entity-2="ProfileController" data-source-line="49" data-uid="lnk29" id="link_Game Client_ProfileController"><path d="M347.41,149.64 C333.27,158.56 315.97,167.94 299,173.3 C260.28,185.51 246.18,167.49 208,181.3 C182.04,190.68 161.1733,205.2437 143.3033,220.1037" fill="none" id="Game Client-to-ProfileController" style="stroke:#181818;stroke-width:1;"/><polygon fill="#181818" points="138.69,223.94,148.1675,221.2611,142.5345,220.7431,143.0525,215.11,138.69,223.94" style="stroke:#181818;stroke-width:1;"/></g><!--link Game Client to GameController--><g class="link" data-entity-1="Game Client" data-entity-2="GameController" data-source-line="50" data-uid="lnk30" id="link_Game Client_GameController"><path d="M364.33,149.59 C350.38,170.91 332.8124,197.7874 318.8924,219.0874" fill="none" id="Game Client-to-GameController" style="stroke:#181818;stroke-width:1;"/><polygon fill="#181818" points="315.61,224.11,323.8819,218.7644,318.3453,219.9245,317.1852,214.3879,315.61,224.11" style="stroke:#181818;stroke-width:1;"/></g><!--link AuthController to UserService--><g class="link" data-entity-1="AuthController" data-entity-2="UserService" data-source-line="53" data-uid="lnk31" id="link_AuthController_UserService"><path d="M482.94,270.88 C483.83,292.21 484.9194,318.1152 485.8094,339.4052" fill="none" id="AuthController-to-UserService" style="stroke:#181818;stroke-width:1;"/><polygon fill="#181818" points="486.06,345.4,489.6806,336.2408,485.8512,340.4044,481.6876,336.5749,486.06,345.4" style="stroke:#181818;stroke-width:1;"/></g><!--link ProfileController to ProfileService--><g class="link" data-entity-1="ProfileController" data-entity-2="ProfileService" data-source-line="54" data-uid="lnk32" id="link_ProfileController_ProfileService"><path d="M113.06,270.88 C112.17,292.21 111.0806,318.1152 110.1906,339.4052" fill="none" id="ProfileController-to-ProfileService" style="stroke:#181818;stroke-width:1;"/><polygon fill="#181818" points="109.94,345.4,114.3124,336.5749,110.1488,340.4044,106.3194,336.2408,109.94,345.4" style="stroke:#181818;stroke-width:1;"/></g><!--link GameController to GameService--><g class="link" data-entity-1="GameController" data-entity-2="GameService" data-source-line="55" data-uid="lnk33" id="link_GameController_GameService"><path d="M301,270.88 C301,292.21 301,318.11 301,339.4" fill="none" id="GameController-to-GameService" style="stroke:#181818;stroke-width:1;"/><polygon fill="#181818" points="301,345.4,305,336.4,301,340.4,297,336.4,301,345.4" style="stroke:#181818;stroke-width:1;"/></g><!--link UserService to IUserRepository--><g class="link" data-entity-1="UserService" data-entity-2="IUserRepository" data-source-line="58" data-uid="lnk34" id="link_UserService_IUserRepository"><path d="M488.08,392.37 C488.92,409.87 489.792,427.9769 490.632,445.4569" fill="none" id="UserService-to-IUserRepository" style="stroke:#181818;stroke-width:1;"/><polygon fill="#181818" points="490.92,451.45,494.4834,442.2684,490.68,446.4558,486.4926,442.6524,490.92,451.45" style="stroke:#181818;stroke-width:1;"/></g><!--link ProfileService to IProfileRepository--><g class="link" data-entity-1="ProfileService" data-entity-2="IProfileRepository" data-source-line="59" data-uid="lnk35" id="link_ProfileService_IProfileRepository"><path d="M107.92,392.37 C107.08,409.87 106.208,427.9769 105.368,445.4569" fill="none" id="ProfileService-to-IProfileRepository" style="stroke:#181818;stroke-width:1;"/><polygon fill="#181818" points="105.08,451.45,109.5074,442.6524,105.32,446.4558,101.5166,442.2684,105.08,451.45" style="stroke:#181818;stroke-width:1;"/></g><!--link GameService to IGameRepository--><g class="link" data-entity-1="GameService" data-entity-2="IGameRepository" data-source-line="60" data-uid="lnk36" id="link_GameService_IGameRepository"><path d="M301,392.37 C301,409.87 301,427.97 301,445.45" fill="none" id="GameService-to-IGameRepository" style="stroke:#181818;stroke-width:1;"/><polygon fill="#181818" points="301,451.45,305,442.45,301,446.45,297,442.45,301,451.45" style="stroke:#181818;stroke-width:1;"/></g><!--reverse link IUserRepository to UserRepository--><g class="link" data-entity-1="IUserRepository" data-entity-2="UserRepository" data-source-line="63" data-uid="lnk37" id="link_IUserRepository_UserRepository"><path d="M490.6428,516.4698 C489.9228,537.7998 489.46,551.7 488.75,573" fill="none" id="IUserRepository-backto-UserRepository" style="stroke:#181818;stroke-width:1;"/><polygon fill="none" points="491.25,498.48,484.6462,516.2673,496.6393,516.6722,491.25,498.48" style="stroke:#181818;stroke-width:1;"/></g><!--reverse link IProfileRepository to ProfileRepository--><g class="link" data-entity-1="IProfileRepository" data-entity-2="ProfileRepository" data-source-line="64" data-uid="lnk38" id="link_IProfileRepository_ProfileRepository"><path d="M105.3572,516.4698 C106.0772,537.7998 106.54,551.7 107.25,573" fill="none" id="IProfileRepository-backto-ProfileRepository" style="stroke:#181818;stroke-width:1;"/><polygon fill="none" points="104.75,498.48,99.3607,516.6722,111.3538,516.2673,104.75,498.48" style="stroke:#181818;stroke-width:1;"/></g><!--reverse link IGameRepository to GameRepository--><g class="link" data-entity-1="IGameRepository" data-entity-2="GameRepository" data-source-line="65" data-uid="lnk39" id="link_IGameRepository_GameRepository"><path d="M301,516.48 C301,537.81 301,551.7 301,573" fill="none" id="IGameRepository-backto-GameRepository" style="stroke:#181818;stroke-width:1;"/><polygon fill="none" points="301,498.48,295,516.48,307,516.48,301,498.48" style="stroke:#181818;stroke-width:1;"/></g><!--link UserRepository to PostgreSQL--><g class="link" data-entity-1="UserRepository" data-entity-2="PostgreSQL" data-source-line="68" data-uid="lnk40" id="link_UserRepository_PostgreSQL"><path d="M452.83,619.77 C419.5,641.03 374.7687,669.5736 341.3887,690.8636" fill="none" id="UserRepository-to-PostgreSQL" style="stroke:#181818;stroke-width:1;"/><polygon fill="#181818" points="336.33,694.09,346.069,692.6228,340.5455,691.4013,341.767,685.8779,336.33,694.09" style="stroke:#181818;stroke-width:1;"/></g><!--link ProfileRepository to PostgreSQL--><g class="link" data-entity-1="ProfileRepository" data-entity-2="PostgreSQL" data-source-line="69" data-uid="lnk41" id="link_ProfileRepository_PostgreSQL"><path d="M144.3,619.77 C178.7,641.03 224.976,669.6457 259.426,690.9357" fill="none" id="ProfileRepository-to-PostgreSQL" style="stroke:#181818;stroke-width:1;"/><polygon fill="#181818" points="264.53,694.09,258.9769,685.956,260.2767,691.4615,254.7712,692.7613,264.53,694.09" style="stroke:#181818;stroke-width:1;"/></g><!--link GameRepository to PostgreSQL--><g class="link" data-entity-1="GameRepository" data-entity-2="PostgreSQL" data-source-line="70" data-uid="lnk42" id="link_GameRepository_PostgreSQL"><path d="M301,619.77 C301,641.1 301,667 301,688.29" fill="none" id="GameRepository-to-PostgreSQL" style="stroke:#181818;stroke-width:1;"/><polygon fill="#181818" points="301,694.29,305,685.29,301,689.29,297,685.29,301,694.29" style="stroke:#181818;stroke-width:1;"/></g><!--SRC=[dPNFRjf04CRlVefHBj03Rr0gaKIgB76WZL0FLGwEjQ5MAOvifrBKLWgaLLLH9OgKKozftu3G80ZXpolClb6_jLrixveU2iBWsTdzVhFxZQbGlLudlkKLFyhlFCNtc4Tom1DrB_iyvna_42vB5PJdyZE67cIVgctxYPfidJZkMwSZQASTYe3iNYI2OySLSS8EVR08hzUln17jTJtHYmufYJntteaizCcoAZ5AesLJbN-00uBoN77XhOI7cfpAR3fdqApk-RqeyBjT4OIPPECqUfCD72R1Lk0VUrrXn1LDFhZXuMlKFkKb4FeraApuDm9p7b5rjzdKa7PFGwydmf2QViTp_zAfl0sLsgG34RptN554AWOLpoQIX6mrzQKuyKClyeEpDD5Efvi3QebyD2lfXbUoZzszu3NndFYUHoXmAOUyeEf-GwzgtuaSQhXkN5XIaaegb6J8RyFQJdKDYYdsDSEHNqoG8oSK6-MM7qQTG1oyQEON-iLZUOMbPl5iHBVPct03HPpd0WFtYR4nECREJEI0uFAsRSMshjMU5KoSY-QDhDJQDjR5NaxnWLYy4hng5NeWdgaxrCmeiQkPf7lNAlPMkPIPKgPbPXbYbRXbZOfXUajNJLOeT429Qe4cIzI4CvgiJIh_w5RylCFZP2I_9O0uwAlO_CQJ3UCBWi6j0ccYP_IWpfccbRY_m9gcwSsWAlW9YZLeuLzmhS0yWvDvh7QKS3S1twEgKbx8IsoqMO0S9lWwB3tzMAkPxLf6cwQMbQ53fwd_Kyg8xn0Tu50kasx3yTsG_AgAmTGfeR5hSOUkrJ-1gipIyLEtv1u49TGbINeLUiOV]--></g></svg>